<?xml version="1.0" encoding="utf-8"?>
<!-- Generator: Adobe Illustrator 23.0.0, SVG Export Plug-In . SVG Version: 6.00 Build 0)  -->
<svg version="1.1" id="레이어_1" xmlns="http://www.w3.org/2000/svg" xmlns:xlink="http://www.w3.org/1999/xlink" x="0px"
	 y="0px" viewBox="0 0 604 120" style="enable-background:new 0 0 604 120;" xml:space="preserve">
<style type="text/css">
	.st0{fill:#FFFFFF;}
</style>
<g>
	<path class="st0" d="M93.1,0c0,0.6,0,119.4,0,120c-31,0-62.1,0-93.1,0C0,80,0,40.1,0,0C31,0,62.1,0,93.1,0z M11.1,103.9
		c0.3,0.1,0.7,0.2,1,0.3c0.2-0.6,0.4-1.2,0.5-1.8c0.9-5.2,1.5-10.4,2.6-15.4c1.8-8,5.4-15.2,11.5-21c0.5-0.5,1.4-1,2.1-0.9
		c4.5,0.5,9,1.3,13.5,1.6c7.9,0.5,15.7-0.2,22.4-4.5c3.7-2.3,6.9-3.8,11.1-1.8c0.3,0.2,0.9-0.1,1.3-0.2c-0.3-0.4-0.4-1-0.8-1.2
		c-1.4-0.7-2.9-1.3-4.5-2c4.9-5.8,7-12.6,8.5-19.7c1.8-8.3,2.2-19.9,0.7-21.4c-0.2,1-0.4,1.8-0.6,2.7c-0.9,5.1-1.5,10.2-2.7,15.2
		C76,41.5,72.5,48.4,66.5,54c-0.6,0.5-1.5,1.1-2.3,1c-4.5-0.4-9-1.3-13.5-1.6c-8.1-0.5-16.1,0.3-23,4.8c-3.4,2.2-6.4,3.2-10.1,1.6
		c-0.5-0.2-1.2,0-1.8,0c-0.1,0.2-0.1,0.4-0.2,0.6c0.9,0.5,1.7,1,2.6,1.4c0.9,0.4,1.9,0.8,2.8,1.2C12.1,75.5,11.2,89.6,11.1,103.9z"
		/>
	<path class="st0" d="M513.5,23.6c3.5,0,7-0.1,10.4,0.1c0.6,0,1.3,1.1,1.6,1.8c4.6,12.5,9.2,25,13.8,37.5c0.3,0.7,0.6,1.4,1.3,2
		c0-13.7,0-27.4,0-41.2c3.8,0,7.3,0,11,0c0,24.1,0,48.2,0,72.7c-3.3,0-6.6,0.1-9.8-0.1c-0.5,0-1.2-1.2-1.4-1.9
		c-4.8-13.5-9.5-27.1-14.3-40.7c-0.3-0.8-0.6-1.7-1.3-2.5c0,14.9,0,29.9,0,45c-3.8,0-7.4,0-11.1,0C513.5,72.1,513.5,48,513.5,23.6z"
		/>
	<path class="st0" d="M131.6,23.6c4.5,0,8.8-0.1,13.1,0c3.5,0.1,7,0,10.5,0.4c8.2,1.1,13.3,6.6,13.8,14.9c0.2,2.8,0.1,5.6-0.3,8.3
		c-0.7,4.8-3.4,8.5-7.9,10.7c0.3,0.3,0.4,0.5,0.6,0.5c8.2,4.2,9.8,11.4,9.2,19.7c-0.2,2.2-0.6,4.4-1.3,6.6
		c-2.2,7-7.9,11.3-15.6,11.6c-7.1,0.3-14.3,0.1-21.4,0.1c-0.2,0-0.4-0.1-0.7-0.2C131.6,72.1,131.6,48,131.6,23.6z M143.7,63.8
		c-0.1,0.9-0.2,1.7-0.2,2.5c0,4.7,0,9.4,0,14c0,6.8,0.6,7.2,7.5,6c3.6-0.6,6-2.5,6.6-6c0.5-2.8,0.7-5.9,0.4-8.7
		c-0.5-4.7-3.1-7.2-7.5-7.8C148.4,63.5,146.2,63.8,143.7,63.8z M143.6,43.5c0,2.6,0.1,5.3,0,7.9c-0.1,1.6,0.5,2.3,2.1,2.2
		c1.5-0.1,2.9-0.1,4.4-0.2c2.2-0.3,4-1.3,5.2-3.2c2.6-4.2,2.3-8.6,0.3-12.8c-1.7-3.7-5.2-4-8.8-3.9c-0.2,0-0.4,0-0.6,0
		c-2.2-0.4-2.7,0.7-2.6,2.7C143.7,38.6,143.6,41.1,143.6,43.5z"/>
	<path class="st0" d="M386.3,96.4c0-24.4,0-48.5,0-72.7c0.6-0.1,1.1-0.2,1.7-0.2c5.9,0,11.9,0,17.8,0c1.7,0,3.5,0.2,5.2,0.6
		c8.3,1.9,12.9,7,13.5,16.1c0.3,4.3-0.1,8.8-0.8,13.1c-0.6,4-2.9,7.3-6.5,9.3c-1.2,0.7-1,1.4-0.6,2.4c3.1,9.5,6.2,19.1,9.2,28.7
		c0.2,0.8,0.4,1.6,0.7,2.6c-4,0-7.7,0.1-11.4-0.1c-0.5,0-1.3-1.1-1.5-1.8c-2.6-8.5-5.1-17-7.5-25.5c-0.6-2.2-1.4-3-3.8-2.8
		c-4.4,0.5-3.9-0.4-3.9,4.1c0,8-0.1,15.9,0,23.9c0,1.7-0.5,2.3-2.2,2.3C392.9,96.3,389.7,96.4,386.3,96.4z M398.6,56.2
		c2.5,0,5,0.2,7.4-0.1c3.1-0.3,5.2-2.2,5.9-5.4c0.9-3.9,0.9-7.7,0-11.6c-0.7-3.1-2.7-5-5.9-5.4c-1.9-0.2-3.8-0.2-5.6-0.3
		c-1.6-0.1-2.1,0.5-2.1,2c0.1,6.4,0,12.7,0,19.1C398.4,55.1,398.5,55.6,398.6,56.2z"/>
	<path class="st0" d="M565.9,96.4c0-24.4,0-48.4,0-72.7c0.6-0.1,1.2-0.2,1.8-0.2c5.9,0,11.7,0,17.6,0c10.8,0.1,18,6.6,18.3,17.4
		c0.4,12.6,0.4,25.3,0,37.9c-0.3,10.8-7.5,17.4-18.3,17.5C579,96.5,572.6,96.4,565.9,96.4z M578.2,86.4c2.3,0,4.5,0.2,6.6,0
		c4.4-0.6,6-2.3,6.7-6.7c0.2-1.2,0.3-2.4,0.3-3.5c0-10.7,0-21.4,0-32c0-1.5-0.2-3.1-0.4-4.6c-0.6-3.2-2.3-5-5.6-5.6
		c-1.6-0.3-3.3-0.3-5-0.3c-2.7-0.1-2.7,0-2.7,2.7c0,15.8,0,31.7,0,47.5C578,84.6,578.1,85.4,578.2,86.4z"/>
	<path class="st0" d="M238.1,96.4c0-24.4,0-48.5,0-72.7c0.7-0.1,1.3-0.2,1.9-0.2c5.9,0,11.7,0,17.6,0c10.9,0.1,18,6.7,18.3,17.6
		c0.3,12.5,0.3,25,0,37.5c-0.3,11-7.5,17.6-18.5,17.7C251.1,96.5,244.7,96.4,238.1,96.4z M250.2,59.9c0,7.1-0.1,14.2,0,21.4
		c0.1,6.2-1.1,5.3,5.5,5.2c5.2-0.1,7.3-2.1,8-7.2c0.2-1.2,0.3-2.4,0.3-3.5c0-10.5,0-20.9,0-31.4c0-1.5-0.1-3.1-0.4-4.6
		c-0.5-3.5-2.3-5.3-5.8-5.9c-1.6-0.3-3.3-0.2-5-0.4c-2-0.2-2.6,0.5-2.6,2.5C250.3,44,250.2,51.9,250.2,59.9z"/>
	<path class="st0" d="M221.8,60.1c0,6.1,0,12.3,0,18.4c0,11.4-6.4,18.2-17.8,18.8c-2.7,0.1-5.5-0.1-8.1-0.8
		c-7.7-2-12.3-8.3-12.4-17.1c-0.1-13-0.2-26,0-39c0.2-11.4,7.9-18.4,19.7-17.9c2.7,0.1,5.6,0.5,8.2,1.6c7.4,3,10.2,9.2,10.4,16.7
		C222,47.3,221.8,53.7,221.8,60.1z M195.9,59.8C195.9,59.8,195.9,59.8,195.9,59.8c0,6.8-0.1,13.5,0,20.3c0.1,4.5,2.5,6.7,6.8,6.7
		c4.3,0,6.5-2.2,6.8-6.6c0-0.7,0-1.4,0-2.1c0-8.6,0-17.2,0-25.8c0-4.2,0-8.4,0-12.6c-0.1-3.7-1.6-5.8-4.4-6.5
		c-5.6-1.4-9.1,1.2-9.2,7C195.8,46.9,195.9,53.4,195.9,59.8z"/>
	<path class="st0" d="M466.9,23.7c11.1,0,22,0,33.1,0c0,3.5,0,6.9,0,10.5c-6.9,0-13.7,0-20.7,0c0,6.5,0,12.7,0,19.2
		c4.2,0,8.4,0,12.6,0c3.6,0,3.4-0.7,3.4,3.3c0,1.8-0.1,3.6,0,5.5c0.1,1.5-0.5,1.9-1.9,1.9c-4.6-0.1-9.2,0-14,0c0,7.2,0,14.4,0,21.8
		c1.4,0,2.8,0,4.2,0c5.2,0,10.5,0.1,15.7,0c1.9,0,2.5,0.6,2.3,2.4c-0.1,2.2-0.1,4.5,0,6.7c0,1-0.3,1.6-1.4,1.6
		c-10.9,0-21.8,0-32.7-0.1c-0.1,0-0.2-0.1-0.5-0.2C466.9,72.1,466.9,48,466.9,23.7z"/>
	<path class="st0" d="M350.3,34.2c0,6.2,0,12.1,0,17.9c0,1.3,0.8,1.2,1.7,1.2c4.2,0,8.4,0,12.6,0c0.8,0,1.5,0,2.4,0
		c0,3.6,0,7,0,10.6c-5.5,0-10.9,0-16.6,0c0,10.9,0,21.5,0,32.4c-3.9,0-7.5,0-11.1-0.1c-0.4,0-0.9-0.7-1.1-1.1
		c-0.2-0.5-0.1-1.1-0.1-1.7c0-22.4,0-44.7,0-67.1c0-2.9,0-2.9,2.8-2.9c9.8,0,19.6,0,29.4,0c0.8,0,1.5,0,2.6,0c0,3.3,0.1,6.5-0.1,9.7
		c0,0.4-1.2,0.9-1.9,0.9c-6,0.1-12,0-18,0C352.2,34.2,351.4,34.2,350.3,34.2z"/>
	<path class="st0" d="M306.1,51.1c0.3-0.8,0.5-1.5,0.8-2.3c2.3-7.7,4.7-15.5,7-23.2c0.5-1.7,1.2-2.2,2.9-2.1c3.3,0.1,6.6,0,10.1,0
		c-1,2.8-1.9,5.3-2.8,7.9c-3.9,11-7.8,21.9-11.7,32.9c-0.4,1.3-0.7,2.7-0.7,4.1c-0.1,8.4,0,16.8,0,25.2c0,0.8,0,1.7,0,2.8
		c-3.8,0-7.5,0.1-11.2-0.1c-0.3,0-0.9-1.2-0.9-1.9c-0.1-6.4-0.3-12.7,0-19.1c0.3-6.1-0.8-11.8-3-17.5c-4-10.5-7.6-21.1-11.3-31.7
		c-0.3-0.7-0.5-1.4-0.8-2.5c4.1,0,7.9-0.1,11.7,0.1c0.5,0,1,1.2,1.3,1.9c2.5,7.9,5,15.8,7.5,23.7c0.2,0.6,0.4,1.2,0.7,1.9
		C305.8,51.1,305.9,51.1,306.1,51.1z"/>
	<path class="st0" d="M440.4,23.7c4,0,7.8,0,11.8,0c0,24.2,0,48.3,0,72.6c-3.9,0-7.8,0-11.8,0C440.4,72.1,440.4,48,440.4,23.7z"/>
	<path class="st0" d="M31.6,62.2c9.6-5.2,19.6-5.3,29.8-4.6C56.8,62,40.4,63.9,31.6,62.2z"/>
</g>
</svg>
