<?xml version="1.0" encoding="utf-8"?>
<!-- Generator: Adobe Illustrator 23.0.0, SVG Export Plug-In . SVG Version: 6.00 Build 0)  -->
<svg version="1.1" id="레이어_1" xmlns="http://www.w3.org/2000/svg" xmlns:xlink="http://www.w3.org/1999/xlink" x="0px"
	 y="0px" viewBox="0 0 47 60" style="enable-background:new 0 0 47 60;" xml:space="preserve">
<style type="text/css">
	.st0{fill:#646569;}
</style>
<g>
	<path class="st0" d="M47,0c0,0.3,0,59.7,0,60c-15.6,0-31.4,0-47,0C0,40,0,20,0,0C15.6,0,31.4,0,47,0z M5.6,52C5.8,52,6,52,6.1,52.1
		c0.1-0.3,0.2-0.6,0.3-0.9c0.5-2.6,0.8-5.2,1.3-7.7c0.9-4,2.7-7.6,5.8-10.5c0.3-0.3,0.7-0.5,1.1-0.5c2.3,0.3,4.5,0.7,6.8,0.8
		c4,0.3,7.9-0.1,11.3-2.3c1.9-1.1,3.5-1.9,5.6-0.9c0.2,0.1,0.5,0,0.7-0.1c-0.2-0.2-0.2-0.5-0.4-0.6c-0.7-0.4-1.5-0.6-2.3-1
		c2.5-2.9,3.5-6.3,4.3-9.9c0.9-4.1,1.1-9.9,0.4-10.7c-0.1,0.5-0.2,0.9-0.3,1.4c-0.5,2.6-0.8,5.1-1.4,7.6c-0.9,3.9-2.6,7.3-5.7,10.1
		c-0.3,0.3-0.8,0.5-1.2,0.5c-2.3-0.2-4.5-0.6-6.8-0.8c-4.1-0.3-8.1,0.1-11.6,2.4c-1.7,1.1-3.2,1.6-5.1,0.8c-0.3-0.1-0.6,0-0.9,0
		c-0.1,0.1-0.1,0.2-0.1,0.3c0.5,0.3,0.9,0.5,1.3,0.7c0.5,0.2,1,0.4,1.4,0.6C6.1,37.8,5.7,44.8,5.6,52z"/>
	<path class="st0" d="M16,31.1c4.8-2.6,9.9-2.6,15-2.3C28.7,31,20.4,32,16,31.1z"/>
</g>
</svg>
